<svg width="400" height="400" viewBox="0 0 200 200" xmlns="http://www.w3.org/2000/svg">
  <circle cx="100" cy="100" r="98" fill="#2d2a2e"/>

  <rect x="46" y="118" width="26" height="30" fill="#a9dc76"/>
  <rect x="78" y="98" width="26" height="50" fill="#fc9867"/>
  <rect x="110" y="72" width="26" height="76" fill="#ff6188"/>

  <line x1="40" y1="80" x2="160" y2="80" stroke="#78dce8" stroke-width="1.5" stroke-dasharray="4,3" opacity="0.55"/>

  <circle cx="123" cy="60" r="8" fill="#78dce8"/>
  <circle cx="123" cy="60" r="13" fill="none" stroke="#78dce8" stroke-width="1" opacity="0.4"/>
  <line x1="123" y1="68" x2="123" y2="72" stroke="#78dce8" stroke-width="2"/>

  <!-- ML initials, outlined as paths (Raleway ExtraBold 24px) so the SVG
       doesn't need to embed the typeface just to render two letters -->
  <path transform="translate(147.680 112)" fill="#ffd866" d="M15.065144252288912 0.0V-10.16222014242116L11.397148321464904 -2.7628516785350965H9.247129196337742L5.572072431332655 -10.16222014242116V0.0H1.63346002034588V-17.04H5.912281586978637L10.318608341810783 -8.127274059003053L14.748935096642928 -17.04H19.003756663275688V0.0Z"/>
  <path transform="translate(150.980 142)" fill="#ab9df2" d="M1.63346002034588 0.0V-17.04H5.572072431332655V-3.444524923702951H13.822574160732453V0.0Z"/>
</svg>
